<svg width="47" height="47" fill="none" xmlns="http://www.w3.org/2000/svg"><path d="M25.3 30.908a1.308 1.308 0 0 1-.397-1 1.42 1.42 0 0 1 .432-1.001l3.899-3.899H13.846c-.391 0-.72-.132-.984-.397a1.33 1.33 0 0 1-.396-.983c0-.39.132-.719.397-.984a1.33 1.33 0 0 1 .983-.396h15.388L25.3 18.315a1.344 1.344 0 0 1-.413-.984c0-.38.137-.708.413-.983.276-.276.604-.414.985-.414.38 0 .707.138.982.414l6.314 6.314c.138.138.236.288.294.449.058.16.086.333.085.517 0 .184-.029.357-.087.518-.057.16-.155.31-.292.448l-6.348 6.348c-.253.253-.57.38-.948.38-.38 0-.708-.138-.985-.414Z" fill="#fff"/></svg>