<svg width="47" height="47" fill="none" xmlns="http://www.w3.org/2000/svg"><path d="M29.837 27.3c-.39 0-.72-.143-.989-.427a1.421 1.421 0 0 1-.402-1.013v-5.513l-10.88 10.88a1.336 1.336 0 0 1-.977.415c-.375 0-.7-.138-.975-.415a1.336 1.336 0 0 1-.415-.976c0-.375.138-.7.415-.975l10.88-10.881h-5.562c-.39 0-.72-.134-.988-.403a1.34 1.34 0 0 1-.402-.988c0-.39.134-.72.403-.988a1.34 1.34 0 0 1 .987-.402h8.93c.194 0 .37.036.524.109.155.073.297.175.427.305s.231.273.304.428c.073.155.11.33.11.524v8.978c0 .358-.134.67-.402.939a1.348 1.348 0 0 1-.988.403Z" fill="#fff"/></svg>