<svg width="52" height="39" fill="none" xmlns="http://www.w3.org/2000/svg"><path d="M23.032 10.974c.432.321.64.71.624 1.167-.015.457-.237.848-.667 1.173l-6.05 4.584 23.953-.103c.609-.003 1.12.15 1.534.458.414.308.621.69.621 1.146.003.457-.202.842-.613 1.153-.411.312-.92.468-1.528.47l-23.952.103 6.142 4.572c.431.321.648.704.65 1.148.001.444-.212.828-.64 1.152-.428.324-.938.488-1.53.49-.591.003-1.102-.156-1.531-.477l-9.86-7.34a1.463 1.463 0 0 1-.46-.522 1.36 1.36 0 0 1-.136-.604c0-.216.044-.418.133-.606.09-.189.24-.364.453-.526l9.85-7.465c.392-.298.884-.448 1.474-.45.59-.003 1.101.156 1.534.477Z" fill="#fff"/></svg>